{
	"asset":{
		"generator":"Khronos glTF Blender I/O v4.0.43",
		"version":"2.0"
	},
	"scene":0,
	"scenes":[
		{
			"name":"Scene",
			"nodes":[
				0,
				1,
				2,
				3,
				4,
				5
			]
		}
	],
	"nodes":[
		{
			"mesh":0,
			"name":"Cube",
			"scale":[
				0.24515984952449799,
				0.3494754433631897,
				0.3494754433631897
			]
		},
		{
			"mesh":1,
			"name":"Circle",
			"scale":[
				2.5368194580078125,
				2.5368194580078125,
				2.5368194580078125
			],
			"translation":[
				0.016912532970309258,
				-0.3499341905117035,
				0
			]
		},
		{
			"mesh":2,
			"name":"Cylinder",
			"scale":[
				0.40578651428222656,
				1.1629005670547485,
				0.40578651428222656
			],
			"translation":[
				0,
				0.6069349646568298,
				0
			]
		},
		{
			"mesh":3,
			"name":"Cylinder.001",
			"rotation":[
				0,
				-0.6741747260093689,
				0,
				0.7385718822479248
			],
			"scale":[
				0.40578651428222656,
				1.1629005670547485,
				0.40578651428222656
			],
			"translation":[
				0,
				0.6069349646568298,
				0.0015074232360348105
			]
		},
		{
			"mesh":4,
			"name":"Cylinder.002",
			"rotation":[
				-0.00422204053029418,
				-0.2541072964668274,
				0.03874252364039421,
				0.9663905501365662
			],
			"scale":[
				0.40578654408454895,
				1.1629005670547485,
				0.40578651428222656
			],
			"translation":[
				-0.010950555093586445,
				0.6068205237388611,
				0.0018389851320534945
			]
		},
		{
			"mesh":5,
			"name":"Cylinder.003",
			"rotation":[
				0.022219650447368622,
				0.44191521406173706,
				0.032017119228839874,
				0.8962098956108093
			],
			"scale":[
				0.40578651428222656,
				1.1629005670547485,
				0.40578651428222656
			],
			"translation":[
				-0.04136303439736366,
				0.6071430444717407,
				-0.010336652398109436
			]
		}
	],
	"materials":[
		{
			"doubleSided":true,
			"name":"Rock",
			"normalTexture":{
				"index":0,
				"texCoord":1
			},
			"pbrMetallicRoughness":{
				"baseColorTexture":{
					"index":1,
					"texCoord":1
				},
				"metallicFactor":0,
				"metallicRoughnessTexture":{
					"index":2,
					"texCoord":1
				}
			}
		},
		{
			"doubleSided":true,
			"name":"Wooden surface",
			"normalTexture":{
				"index":3,
				"scale":1.5,
				"texCoord":1
			},
			"pbrMetallicRoughness":{
				"baseColorTexture":{
					"index":4,
					"texCoord":1
				},
				"metallicFactor":0,
				"metallicRoughnessTexture":{
					"index":5,
					"texCoord":1
				}
			}
		}
	],
	"meshes":[
		{
			"name":"Cube.001",
			"primitives":[
				{
					"attributes":{
						"POSITION":0,
						"NORMAL":1,
						"TEXCOORD_0":2,
						"TEXCOORD_1":3
					},
					"indices":4,
					"material":0
				}
			]
		},
		{
			"name":"Circle",
			"primitives":[
				{
					"attributes":{
						"POSITION":5,
						"NORMAL":6,
						"TEXCOORD_0":7,
						"TEXCOORD_1":8
					},
					"indices":9,
					"material":0
				}
			]
		},
		{
			"name":"Cylinder",
			"primitives":[
				{
					"attributes":{
						"POSITION":10,
						"NORMAL":11,
						"TEXCOORD_0":12,
						"TEXCOORD_1":13
					},
					"indices":14,
					"material":1
				}
			]
		},
		{
			"name":"Cylinder.001",
			"primitives":[
				{
					"attributes":{
						"POSITION":15,
						"NORMAL":16,
						"TEXCOORD_0":17,
						"TEXCOORD_1":18
					},
					"indices":14,
					"material":1
				}
			]
		},
		{
			"name":"Cylinder.002",
			"primitives":[
				{
					"attributes":{
						"POSITION":19,
						"NORMAL":20,
						"TEXCOORD_0":21,
						"TEXCOORD_1":22
					},
					"indices":14,
					"material":1
				}
			]
		},
		{
			"name":"Cylinder.003",
			"primitives":[
				{
					"attributes":{
						"POSITION":23,
						"NORMAL":24,
						"TEXCOORD_0":25,
						"TEXCOORD_1":26
					},
					"indices":14,
					"material":1
				}
			]
		}
	],
	"textures":[
		{
			"sampler":0,
			"source":0
		},
		{
			"sampler":0,
			"source":1
		},
		{
			"sampler":0,
			"source":2
		},
		{
			"sampler":0,
			"source":3
		},
		{
			"sampler":0,
			"source":4
		},
		{
			"sampler":0,
			"source":5
		}
	],
	"images":[
		{
			"mimeType":"image/jpeg",
			"name":"Normal",
			"uri":"Normal.jpg"
		},
		{
			"mimeType":"image/jpeg",
			"name":"Base Color",
			"uri":"Base%20Color.jpg"
		},
		{
			"mimeType":"image/png",
			"name":"Roughness",
			"uri":"Roughness.png"
		},
		{
			"mimeType":"image/jpeg",
			"name":"WoodenSurface_normal",
			"uri":"WoodenSurface_normal.jpg"
		},
		{
			"mimeType":"image/jpeg",
			"name":"WoodenSurface_basecolor",
			"uri":"WoodenSurface_basecolor.jpg"
		},
		{
			"mimeType":"image/png",
			"name":"WoodenSurface_roughness",
			"uri":"WoodenSurface_roughness.png"
		}
	],
	"accessors":[
		{
			"bufferView":0,
			"componentType":5126,
			"count":2016,
			"max":[
				11.992412567138672,
				0.9183387160301208,
				8.35496711730957
			],
			"min":[
				-11.966452598571777,
				-0.9183387160301208,
				-8.42808723449707
			],
			"type":"VEC3"
		},
		{
			"bufferView":1,
			"componentType":5126,
			"count":2016,
			"type":"VEC3"
		},
		{
			"bufferView":2,
			"componentType":5126,
			"count":2016,
			"type":"VEC2"
		},
		{
			"bufferView":3,
			"componentType":5126,
			"count":2016,
			"type":"VEC2"
		},
		{
			"bufferView":4,
			"componentType":5123,
			"count":2772,
			"type":"SCALAR"
		},
		{
			"bufferView":5,
			"componentType":5126,
			"count":32,
			"max":[
				1,
				0,
				1
			],
			"min":[
				-1,
				0,
				-1
			],
			"type":"VEC3"
		},
		{
			"bufferView":6,
			"componentType":5126,
			"count":32,
			"type":"VEC3"
		},
		{
			"bufferView":7,
			"componentType":5126,
			"count":32,
			"type":"VEC2"
		},
		{
			"bufferView":8,
			"componentType":5126,
			"count":32,
			"type":"VEC2"
		},
		{
			"bufferView":9,
			"componentType":5123,
			"count":90,
			"type":"SCALAR"
		},
		{
			"bufferView":10,
			"componentType":5126,
			"count":576,
			"max":[
				1,
				1.3237448930740356,
				5.973167419433594
			],
			"min":[
				-1.1675238609313965,
				-0.7889695763587952,
				-5.676261901855469
			],
			"type":"VEC3"
		},
		{
			"bufferView":11,
			"componentType":5126,
			"count":576,
			"type":"VEC3"
		},
		{
			"bufferView":12,
			"componentType":5126,
			"count":576,
			"type":"VEC2"
		},
		{
			"bufferView":13,
			"componentType":5126,
			"count":576,
			"type":"VEC2"
		},
		{
			"bufferView":14,
			"componentType":5123,
			"count":1116,
			"type":"SCALAR"
		},
		{
			"bufferView":15,
			"componentType":5126,
			"count":576,
			"max":[
				1,
				1.3237448930740356,
				5.973167419433594
			],
			"min":[
				-1.1675238609313965,
				-0.7889695763587952,
				-5.676261901855469
			],
			"type":"VEC3"
		},
		{
			"bufferView":16,
			"componentType":5126,
			"count":576,
			"type":"VEC3"
		},
		{
			"bufferView":17,
			"componentType":5126,
			"count":576,
			"type":"VEC2"
		},
		{
			"bufferView":18,
			"componentType":5126,
			"count":576,
			"type":"VEC2"
		},
		{
			"bufferView":19,
			"componentType":5126,
			"count":576,
			"max":[
				1,
				1.3237448930740356,
				5.973167419433594
			],
			"min":[
				-1.1675238609313965,
				-0.7889695763587952,
				-5.676261901855469
			],
			"type":"VEC3"
		},
		{
			"bufferView":20,
			"componentType":5126,
			"count":576,
			"type":"VEC3"
		},
		{
			"bufferView":21,
			"componentType":5126,
			"count":576,
			"type":"VEC2"
		},
		{
			"bufferView":22,
			"componentType":5126,
			"count":576,
			"type":"VEC2"
		},
		{
			"bufferView":23,
			"componentType":5126,
			"count":576,
			"max":[
				1,
				1.3237448930740356,
				5.973167419433594
			],
			"min":[
				-1.1675238609313965,
				-0.7889695763587952,
				-5.676261901855469
			],
			"type":"VEC3"
		},
		{
			"bufferView":24,
			"componentType":5126,
			"count":576,
			"type":"VEC3"
		},
		{
			"bufferView":25,
			"componentType":5126,
			"count":576,
			"type":"VEC2"
		},
		{
			"bufferView":26,
			"componentType":5126,
			"count":576,
			"type":"VEC2"
		}
	],
	"bufferViews":[
		{
			"buffer":0,
			"byteLength":24192,
			"byteOffset":0,
			"target":34962
		},
		{
			"buffer":0,
			"byteLength":24192,
			"byteOffset":24192,
			"target":34962
		},
		{
			"buffer":0,
			"byteLength":16128,
			"byteOffset":48384,
			"target":34962
		},
		{
			"buffer":0,
			"byteLength":16128,
			"byteOffset":64512,
			"target":34962
		},
		{
			"buffer":0,
			"byteLength":5544,
			"byteOffset":80640,
			"target":34963
		},
		{
			"buffer":0,
			"byteLength":384,
			"byteOffset":86184,
			"target":34962
		},
		{
			"buffer":0,
			"byteLength":384,
			"byteOffset":86568,
			"target":34962
		},
		{
			"buffer":0,
			"byteLength":256,
			"byteOffset":86952,
			"target":34962
		},
		{
			"buffer":0,
			"byteLength":256,
			"byteOffset":87208,
			"target":34962
		},
		{
			"buffer":0,
			"byteLength":180,
			"byteOffset":87464,
			"target":34963
		},
		{
			"buffer":0,
			"byteLength":6912,
			"byteOffset":87644,
			"target":34962
		},
		{
			"buffer":0,
			"byteLength":6912,
			"byteOffset":94556,
			"target":34962
		},
		{
			"buffer":0,
			"byteLength":4608,
			"byteOffset":101468,
			"target":34962
		},
		{
			"buffer":0,
			"byteLength":4608,
			"byteOffset":106076,
			"target":34962
		},
		{
			"buffer":0,
			"byteLength":2232,
			"byteOffset":110684,
			"target":34963
		},
		{
			"buffer":0,
			"byteLength":6912,
			"byteOffset":112916,
			"target":34962
		},
		{
			"buffer":0,
			"byteLength":6912,
			"byteOffset":119828,
			"target":34962
		},
		{
			"buffer":0,
			"byteLength":4608,
			"byteOffset":126740,
			"target":34962
		},
		{
			"buffer":0,
			"byteLength":4608,
			"byteOffset":131348,
			"target":34962
		},
		{
			"buffer":0,
			"byteLength":6912,
			"byteOffset":135956,
			"target":34962
		},
		{
			"buffer":0,
			"byteLength":6912,
			"byteOffset":142868,
			"target":34962
		},
		{
			"buffer":0,
			"byteLength":4608,
			"byteOffset":149780,
			"target":34962
		},
		{
			"buffer":0,
			"byteLength":4608,
			"byteOffset":154388,
			"target":34962
		},
		{
			"buffer":0,
			"byteLength":6912,
			"byteOffset":158996,
			"target":34962
		},
		{
			"buffer":0,
			"byteLength":6912,
			"byteOffset":165908,
			"target":34962
		},
		{
			"buffer":0,
			"byteLength":4608,
			"byteOffset":172820,
			"target":34962
		},
		{
			"buffer":0,
			"byteLength":4608,
			"byteOffset":177428,
			"target":34962
		}
	],
	"samplers":[
		{
			"magFilter":9729,
			"minFilter":9987
		}
	],
	"buffers":[
		{
			"byteLength":182036,
			"uri":"camp.bin"
		}
	]
}
